<svg width="495" height="457" viewBox="0 0 495 457" fill="none" xmlns="http://www.w3.org/2000/svg">
<g clip-path="url(#clip0_47_43)">
<path d="M122.18 416.999L123.187 440.893L123.187 440.894C123.357 444.933 122.095 448.882 119.679 451.873C117.263 454.864 113.891 456.652 110.304 456.843L109.864 456.867L108.216 417.745L122.18 416.999Z" fill="#E6E6E6"/>
<path d="M423.904 376.62C413.797 398.828 400.976 420.307 384.755 439.747C384.395 440.186 384.031 440.613 383.664 441.049L345.232 420.563C345.467 420.124 345.724 419.63 346.002 419.09C362.511 387.287 462.168 193.284 459.019 149.345C459.386 152.969 471.198 272.814 423.904 376.62Z" fill="#E6E6E6"/>
<path d="M392.17 443.698C391.632 444.043 391.08 444.38 390.525 444.705L361.694 429.338C362.097 429.016 362.566 428.635 363.106 428.207C371.939 421.067 398.204 399.644 423.904 376.62C451.523 351.878 478.494 325.293 482.5 312.603C481.686 315.513 456.407 403.965 392.17 443.698Z" fill="#E6E6E6"/>
<path d="M47.9592 455.913C72.5328 455.913 92.4536 433.483 92.4536 405.816C92.4536 378.148 72.5328 355.719 47.9592 355.719C23.3857 355.719 3.46486 378.148 3.46486 405.816C3.46486 433.483 23.3857 455.913 47.9592 455.913Z" fill="#57A773"/>
<path d="M65.7822 384.793H30.1363C28.5612 384.795 27.0511 385.5 25.9373 386.754C24.8236 388.008 24.1971 389.709 24.1953 391.482V420.149C24.197 421.923 24.8235 423.623 25.9373 424.877C27.0511 426.131 28.5612 426.836 30.1363 426.838H65.7822C67.3574 426.836 68.8675 426.131 69.9812 424.877C71.095 423.623 71.7215 421.923 71.7233 420.149V391.482C71.7215 389.709 71.095 388.008 69.9812 386.754C68.8674 385.5 67.3573 384.795 65.7822 384.793ZM65.7822 388.615C65.995 388.616 66.2069 388.647 66.4128 388.708L47.9634 405.278L29.6218 388.674C29.7911 388.635 29.9634 388.615 30.1362 388.615H65.7822ZM65.7822 423.016H30.1363C29.4612 423.015 28.814 422.713 28.3367 422.175C27.8594 421.638 27.5909 420.909 27.5901 420.149V391.739L46.8957 409.216C47.1963 409.488 47.5703 409.637 47.956 409.638C48.3418 409.639 48.7162 409.492 49.0178 409.221L68.3284 391.877V420.149C68.3276 420.909 68.0591 421.638 67.5818 422.175C67.1045 422.713 66.4573 423.015 65.7822 423.016Z" fill="white"/>
<path d="M219.673 333.489L229.629 333.581C230.636 333.59 231.634 333.352 232.551 332.883C233.468 332.414 234.283 331.725 234.94 330.865C235.596 330.005 236.078 328.994 236.352 327.902C236.626 326.81 236.685 325.665 236.525 324.545C236.353 323.34 235.932 322.197 235.296 321.208C234.66 320.219 233.827 319.413 232.863 318.853C231.9 318.293 230.833 317.995 229.749 317.984C228.665 317.973 227.593 318.249 226.621 318.789L217.232 324.005L185.12 332.068L171.363 316.232L163.461 330.886L182.025 347.034L219.673 333.489Z" fill="#FFB8B8"/>
<path d="M217.807 449.299L206.078 451.839C198.066 423.404 189.385 396.475 189.386 375.648C178.048 389.856 163.987 397.984 147.43 400.537L149.235 369.045L162.769 360.918L183.483 350.154C185.296 349.211 187.253 348.666 189.247 348.548C193.125 348.318 196.942 349.712 199.962 352.46C202.982 355.209 204.992 359.118 205.606 363.435L217.807 449.299Z" fill="#E6E6E6"/>
<path d="M161.641 396.728L156.966 400.728C154.956 402.448 152.581 403.546 150.077 403.914C147.573 404.281 145.028 403.905 142.693 402.823C129.303 391.522 119.79 394.856 111.168 411.913C100.826 398.772 98.275 379.792 107.505 360.156L158.709 361.426L169.085 357.87L161.641 396.728Z" fill="#E6E6E6"/>
<path d="M144.588 455.578C141.654 456.595 138.496 456.416 135.667 455.074C132.838 453.732 130.519 451.312 129.115 448.238C124.514 443.675 120.631 437.141 117.264 429.196C114.847 423.368 112.773 417.368 111.053 411.234C108.722 403.131 112.619 394.279 119.871 391.854C120.086 391.782 120.305 391.714 120.526 391.651C130.207 388.852 140.148 395.139 143.457 405.758L153.08 436.635C153.648 438.459 153.892 440.391 153.797 442.322C153.703 444.252 153.271 446.142 152.527 447.884C151.784 449.627 150.743 451.187 149.464 452.476C148.184 453.766 146.692 454.759 145.072 455.399C144.912 455.462 144.75 455.522 144.588 455.578Z" fill="#E6E6E6"/>
<path opacity="0.2" d="M115.625 425.68C115.625 425.68 126.903 439.902 129.159 448.029L115.625 425.68Z" fill="black"/>
<path d="M71.8829 358.559L68.1082 368.932C67.7263 369.982 67.5523 371.112 67.5983 372.246C67.6444 373.379 67.9094 374.487 68.3749 375.493C68.8404 376.499 69.4952 377.378 70.2936 378.07C71.092 378.761 72.0148 379.249 72.9977 379.498C74.0555 379.765 75.1543 379.75 76.2058 379.452C77.2574 379.155 78.2321 378.584 79.0518 377.785C79.8714 376.985 80.513 375.981 80.9249 374.852C81.3368 373.722 81.5075 372.5 81.4233 371.283L80.61 359.531L85.8913 322.968L104.061 314.471L94.913 300.766L74.7001 314.172L71.8829 358.559Z" fill="#FFB8B8"/>
<path d="M162.092 360.156C149.13 384.67 123.289 394.163 101.157 374.967C105.05 360.564 117.62 320.758 109.5 319.234C92.258 327.375 92.2329 308.261 89.0079 298.695L128.257 282.441L149.46 289.044L153.807 290.781C156.635 291.911 159.089 293.989 160.837 296.736C162.585 299.483 163.544 302.767 163.586 306.146C154.679 320.634 148.085 336.088 162.092 360.156Z" fill="#57A773"/>
<path d="M167.055 340.346L151.49 325.87L156.678 292.092L177.882 317.489L167.055 340.346Z" fill="#57A773"/>
<path d="M425.313 108.3H423.088V39.7017C423.088 29.1722 419.373 19.0739 412.761 11.6284C406.148 4.18285 397.179 0 387.827 0H258.745C249.393 0 240.424 4.18285 233.811 11.6284C227.198 19.0739 223.483 29.1722 223.483 39.7017V416.038C223.483 426.567 227.198 436.665 233.811 444.111C240.424 451.556 249.393 455.739 258.745 455.739H387.826C397.178 455.739 406.147 451.556 412.76 444.111C419.373 436.665 423.088 426.567 423.088 416.038V157.129H425.313L425.313 108.3Z" fill="#3F3D56"/>
<path d="M389.249 10.3281H372.4C373.175 12.4672 373.471 14.7881 373.262 17.0864C373.053 19.3847 372.345 21.5897 371.2 23.5073C370.056 25.4248 368.51 26.996 366.699 28.0824C364.888 29.1687 362.868 29.7369 360.816 29.7369H286.867C284.815 29.7367 282.795 29.1684 280.984 28.0821C279.174 26.9958 277.628 25.4248 276.484 23.5075C275.339 21.5902 274.631 19.3855 274.422 17.0876C274.212 14.7896 274.508 12.4689 275.283 10.33H259.543C252.559 10.33 245.861 13.4538 240.922 19.0142C235.984 24.5747 233.209 32.1162 233.209 39.9798V415.761C233.209 423.625 235.984 431.167 240.922 436.727C245.861 442.287 252.559 445.411 259.543 445.411H389.244C396.229 445.411 402.927 442.287 407.865 436.727C412.804 431.167 415.578 423.625 415.578 415.761V39.9779C415.578 32.1143 412.804 24.5728 407.865 19.0123C402.927 13.4519 396.229 10.3281 389.244 10.3281L389.249 10.3281Z" fill="#57A773"/>
<path d="M324.619 424.411C332.605 424.411 339.08 417.122 339.08 408.13C339.08 399.138 332.605 391.848 324.619 391.848C316.633 391.848 310.158 399.138 310.158 408.13C310.158 417.122 316.633 424.411 324.619 424.411Z" fill="#E6E6E6"/>
<path d="M265.955 257.559C264.588 257.559 263.476 258.989 263.476 260.745C263.476 262.502 264.588 263.931 265.955 263.931H382.832C384.199 263.931 385.312 262.502 385.312 260.745C385.312 258.989 384.199 257.559 382.832 257.559H265.955Z" fill="#E6E6E6"/>
<path d="M265.955 332.704C264.588 332.704 263.476 334.134 263.476 335.89C263.476 337.647 264.588 339.076 265.955 339.076H382.832C384.199 339.076 385.312 337.647 385.312 335.89C385.312 334.134 384.199 332.704 382.832 332.704H265.955Z" fill="#E6E6E6"/>
<path d="M265.955 276.676C264.588 276.676 263.476 278.105 263.476 279.862C263.476 281.618 264.588 283.048 265.955 283.048H316.248C317.615 283.048 318.727 281.618 318.727 279.862C318.727 278.105 317.615 276.676 316.248 276.676H265.955Z" fill="#E6E6E6"/>
<path d="M265.955 294.897C264.588 294.897 263.476 296.327 263.476 298.083C263.476 299.84 264.588 301.269 265.955 301.269H382.832C384.199 301.269 385.312 299.84 385.312 298.083C385.312 296.327 384.199 294.897 382.832 294.897H265.955Z" fill="#E6E6E6"/>
<path d="M265.955 314.014C264.588 314.014 263.476 315.443 263.476 317.2C263.476 318.957 264.588 320.386 265.955 320.386H316.248C317.615 320.386 318.727 318.957 318.727 317.2C318.727 315.443 317.615 314.014 316.248 314.014H265.955Z" fill="#E6E6E6"/>
<path d="M288.019 112.484H360.775C361.579 112.485 362.35 112.845 362.918 113.485C363.486 114.125 363.806 114.993 363.807 115.898V201.21C363.806 202.115 363.486 202.983 362.918 203.623C362.35 204.263 361.579 204.623 360.775 204.624H288.019C287.216 204.623 286.445 204.263 285.877 203.623C285.309 202.983 284.989 202.115 284.988 201.21V115.898C284.989 114.993 285.309 114.125 285.877 113.485C286.445 112.845 287.216 112.485 288.019 112.484Z" fill="#57A773"/>
<path d="M345.272 187.031C345.543 187.031 345.811 186.972 346.061 186.856C346.311 186.739 346.539 186.569 346.73 186.354C346.922 186.139 347.074 185.883 347.177 185.602C347.281 185.321 347.335 185.019 347.335 184.714C347.335 184.41 347.282 184.108 347.178 183.827C347.075 183.545 346.923 183.29 346.732 183.074C346.54 182.859 346.313 182.688 346.063 182.572C345.813 182.455 345.545 182.396 345.274 182.396H303.522C303.252 182.395 302.984 182.455 302.734 182.571C302.483 182.687 302.256 182.858 302.065 183.073C301.873 183.288 301.721 183.543 301.617 183.825C301.514 184.106 301.46 184.408 301.46 184.712C301.46 185.017 301.513 185.318 301.617 185.6C301.72 185.881 301.872 186.137 302.063 186.352C302.255 186.568 302.482 186.738 302.732 186.855C302.982 186.971 303.25 187.031 303.52 187.031H345.272Z" fill="white"/>
<path d="M345.273 173.378C345.818 173.378 346.342 173.134 346.728 172.699C347.114 172.264 347.331 171.675 347.331 171.06C347.331 170.446 347.114 169.856 346.728 169.422C346.342 168.987 345.818 168.743 345.273 168.743H303.522C302.976 168.743 302.453 168.987 302.067 169.421C301.681 169.855 301.463 170.445 301.463 171.059C301.463 171.674 301.679 172.263 302.065 172.698C302.451 173.133 302.974 173.377 303.52 173.378H345.273Z" fill="white"/>
<path d="M324.397 130.077C326.959 130.077 329.464 130.933 331.595 132.536C333.725 134.138 335.385 136.416 336.366 139.082C337.346 141.747 337.603 144.68 337.103 147.509C336.603 150.338 335.369 152.937 333.558 154.977C331.746 157.017 329.438 158.406 326.925 158.969C324.412 159.532 321.807 159.243 319.44 158.139C317.072 157.035 315.049 155.166 313.626 152.767C312.202 150.368 311.442 147.548 311.442 144.663C311.446 140.796 312.812 137.089 315.241 134.354C317.67 131.62 320.963 130.082 324.397 130.077Z" fill="white"/>
<path d="M159.103 278.018H120.643C119.852 278.017 119.094 277.663 118.534 277.033C117.975 276.403 117.66 275.549 117.659 274.659V255.994C117.659 249.361 120 242.999 124.166 238.309C128.332 233.618 133.982 230.983 139.873 230.983C145.765 230.983 151.415 233.618 155.581 238.309C159.747 242.999 162.087 249.361 162.087 255.994V274.659C162.086 275.55 161.771 276.403 161.212 277.033C160.653 277.663 159.894 278.017 159.103 278.018Z" fill="#57A773"/>
<path d="M158.41 267.353C162.724 258.466 159.824 247.325 151.931 242.467C144.039 237.61 134.143 240.875 129.829 249.762C125.514 258.648 128.415 269.789 136.307 274.647C144.2 279.505 154.096 276.239 158.41 267.353Z" fill="#FFB6B6"/>
<path d="M167.342 257.861H143.825L143.584 254.059L142.378 257.861H138.757L138.279 250.326L135.889 257.861H128.882V257.487C128.888 252.242 130.741 247.213 134.035 243.504C137.329 239.795 141.796 237.709 146.454 237.703H149.77C154.429 237.709 158.895 239.795 162.19 243.504C165.484 247.213 167.337 252.242 167.342 257.487V257.861Z" fill="#57A773"/>
<path d="M143.633 281.503C143.456 281.502 143.279 281.485 143.105 281.45L125.884 278.029V245.986H144.84L144.371 246.602C137.841 255.176 142.761 269.079 146.274 276.603C146.533 277.154 146.649 277.776 146.607 278.398C146.566 279.02 146.37 279.616 146.041 280.117C145.765 280.546 145.403 280.895 144.985 281.136C144.566 281.377 144.103 281.503 143.633 281.503Z" fill="#57A773"/>
<path d="M200.966 439.709L222.212 439.708H222.213C225.804 439.708 229.247 441.314 231.786 444.173C234.326 447.032 235.752 450.909 235.752 454.952V455.448L200.967 455.449L200.966 439.709Z" fill="#E6E6E6"/>
<path d="M494.444 457H0.55618C0.408672 457 0.267205 456.934 0.162901 456.817C0.0585969 456.699 0 456.54 0 456.374C0 456.208 0.0585969 456.048 0.162901 455.931C0.267205 455.814 0.408672 455.748 0.55618 455.748H494.444C494.591 455.748 494.733 455.814 494.837 455.931C494.941 456.048 495 456.208 495 456.374C495 456.54 494.941 456.699 494.837 456.817C494.733 456.934 494.591 457 494.444 457Z" fill="#CACACA"/>
</g>
<defs>
<clipPath id="clip0_47_43">
<rect width="495" height="457" fill="white"/>
</clipPath>
</defs>
</svg>
