<svg width="416" height="523" viewBox="0 0 416 523" fill="none" xmlns="http://www.w3.org/2000/svg">
<g clip-path="url(#clip0_33_78)">
<path d="M161.233 429.258C152.976 420.253 141.009 415.088 128.402 415.088L127.916 415.089C119.612 415.092 111.456 412.763 104.283 408.34L103.536 407.88L104.138 407.225C107.393 403.664 110.11 399.595 112.196 395.16C110.715 396.62 108.948 397.719 107.021 398.377C105.094 399.035 103.054 399.238 101.044 398.97C98.9233 398.702 96.8869 397.93 95.088 396.712C93.2892 395.493 91.7746 393.86 90.6579 391.934C86.2516 384.374 80.9993 373.646 80.9993 365.474C81.0061 358.567 82.3738 351.736 85.0152 345.418C87.6565 339.101 91.5136 333.434 96.3406 328.78C99.3964 325.866 101.837 322.304 103.504 318.326C105.171 314.347 106.026 310.042 106.014 305.691L106.011 305.072C106.01 299.343 106.672 293.636 107.982 288.077L108.115 287.516L108.662 287.536C112.183 287.663 115.707 287.351 119.16 286.606C115.921 286.186 112.753 285.295 109.745 283.958L109.157 283.706L109.357 283.07C123.101 274.071 154.126 278.731 172.134 235.161C186.736 199.831 238.257 266.523 238.257 305.072C238.257 309.005 234.576 314.203 237.331 316.803C267.121 344.908 246.567 362.955 240.086 381.114C238.549 385.423 241.882 390.153 241.882 394.814C241.882 395.605 241.863 396.421 241.826 397.241L241.768 398.5L240.775 397.801C238.81 396.44 236.989 394.86 235.342 393.089C237.05 397.246 237.856 401.756 237.698 406.285C237.541 410.815 236.425 415.25 234.433 419.264C231.311 425.495 228.291 429.956 225.456 432.521C216.376 440.739 204.67 444.978 192.732 444.371C180.794 443.765 169.527 438.359 161.233 429.258H161.233Z" fill="#E6E6E6"/>
<path d="M211.107 523C211.31 523 211.506 522.922 211.659 522.781C211.812 522.641 211.912 522.446 211.941 522.233C211.977 521.967 215.488 495.188 212.335 459.597C209.422 426.729 200.07 379.386 172.054 340.504C171.987 340.411 171.903 340.332 171.807 340.273C171.712 340.214 171.606 340.176 171.496 340.16C171.386 340.144 171.274 340.151 171.167 340.181C171.06 340.211 170.959 340.263 170.871 340.334C170.783 340.406 170.709 340.494 170.653 340.596C170.597 340.697 170.561 340.809 170.546 340.925C170.531 341.041 170.538 341.16 170.567 341.273C170.595 341.386 170.645 341.493 170.712 341.586C198.486 380.132 207.763 427.127 210.654 459.764C213.79 495.147 210.306 521.718 210.27 521.982C210.253 522.109 210.262 522.237 210.297 522.36C210.331 522.483 210.39 522.596 210.469 522.693C210.548 522.789 210.646 522.867 210.756 522.92C210.866 522.973 210.986 523 211.107 523V523Z" fill="#3F3D56"/>
<path d="M188.244 395.349C188.422 395.349 188.596 395.289 188.74 395.179C188.885 395.068 188.992 394.912 189.047 394.733C189.102 394.553 189.102 394.36 189.047 394.181C188.992 394.002 188.885 393.845 188.741 393.735C180.758 388.02 172.134 383.378 163.068 379.914C148.904 374.431 127.365 369.459 105.191 376.922C105.086 376.957 104.987 377.014 104.902 377.09C104.818 377.166 104.748 377.258 104.696 377.362C104.645 377.466 104.614 377.58 104.605 377.697C104.595 377.814 104.608 377.932 104.641 378.043C104.675 378.155 104.729 378.259 104.801 378.349C104.872 378.438 104.96 378.512 105.059 378.566C105.157 378.62 105.265 378.652 105.376 378.662C105.486 378.672 105.597 378.658 105.703 378.622C127.423 371.313 148.571 376.202 162.488 381.59C171.408 384.995 179.894 389.559 187.749 395.178C187.893 395.289 188.066 395.349 188.244 395.349Z" fill="#3F3D56"/>
<path d="M226.861 293.638C226.874 293.45 226.83 293.262 226.736 293.102C226.642 292.942 226.503 292.818 226.338 292.747C226.173 292.675 225.991 292.661 225.818 292.707C225.645 292.752 225.49 292.854 225.375 292.998C219.41 301.006 214.411 309.768 210.491 319.081C204.299 333.626 198.059 355.986 203.501 379.911C203.526 380.025 203.573 380.133 203.638 380.227C203.703 380.322 203.786 380.403 203.88 380.464C203.975 380.525 204.08 380.566 204.189 380.585C204.299 380.603 204.411 380.598 204.518 380.571C204.626 380.544 204.728 380.494 204.818 380.425C204.907 380.356 204.983 380.269 205.041 380.169C205.099 380.069 205.137 379.958 205.155 379.842C205.172 379.726 205.167 379.608 205.141 379.494C199.811 356.059 205.945 334.105 212.03 319.814C215.883 310.65 220.799 302.029 226.665 294.148C226.78 294.004 226.848 293.826 226.861 293.638Z" fill="#3F3D56"/>
<path d="M389.608 522.055H322.439L322.151 521.501C321.292 519.854 320.463 518.109 319.688 516.316C312.769 500.652 309.845 482.737 307.265 466.931L305.322 455.017C305.086 453.574 305.264 452.09 305.831 450.754C306.398 449.418 307.329 448.292 308.505 447.519C309.681 446.746 311.048 446.362 312.432 446.416C313.815 446.47 315.153 446.959 316.272 447.821C326.48 455.676 336.691 463.523 346.907 471.362C350.775 474.339 355.192 477.783 359.423 481.506C359.831 479.409 360.258 477.307 360.685 475.233C360.98 473.802 361.671 472.495 362.672 471.482C363.672 470.468 364.936 469.794 366.301 469.544C367.666 469.294 369.071 469.481 370.335 470.081C371.599 470.68 372.665 471.665 373.397 472.909L381.256 486.261C386.988 496.012 392.047 505.62 391.016 515.983C391.021 516.109 391.012 516.236 390.989 516.36C390.783 518.062 390.401 519.735 389.849 521.349L389.608 522.055Z" fill="#F0F0F0"/>
<path d="M358.315 242.808L345.352 192.069C344.797 189.921 343.465 188.09 341.644 186.971C339.824 185.853 337.66 185.535 335.621 186.089C334.566 186.375 333.577 186.885 332.714 187.589C331.852 188.292 331.134 189.174 330.604 190.181C330.074 191.187 329.744 192.297 329.633 193.443C329.522 194.589 329.633 195.747 329.96 196.846L344.953 249.115L352.797 281.281C351.655 282.204 350.809 283.476 350.374 284.924C349.938 286.373 349.936 287.929 350.366 289.379C350.796 290.83 351.638 292.105 352.777 293.032C353.916 293.959 355.298 294.493 356.734 294.56C358.17 294.628 359.591 294.227 360.803 293.411C362.016 292.595 362.962 291.404 363.512 290C364.063 288.595 364.191 287.046 363.88 285.562C363.569 284.078 362.833 282.731 361.773 281.705L358.315 242.808Z" fill="#FFB7B7"/>
<path d="M249.234 231.88L288.621 199.825C290.285 198.462 291.377 196.461 291.659 194.255C291.941 192.048 291.391 189.813 290.129 188.031C289.476 187.109 288.652 186.337 287.707 185.763C286.763 185.189 285.718 184.824 284.636 184.691C283.554 184.558 282.458 184.66 281.414 184.989C280.37 185.319 279.401 185.87 278.565 186.608L238.617 221.232L213.505 241.188C212.262 240.424 210.827 240.083 209.395 240.211C207.962 240.34 206.602 240.932 205.499 241.906C204.396 242.88 203.603 244.19 203.228 245.658C202.853 247.125 202.915 248.679 203.404 250.109C203.894 251.538 204.787 252.773 205.964 253.647C207.14 254.52 208.542 254.989 209.98 254.991C211.417 254.992 212.82 254.526 213.998 253.654C215.176 252.783 216.072 251.55 216.564 250.121L249.234 231.88Z" fill="#FFB7B7"/>
<path d="M281.336 239.249L279.6 280.252L334.112 267.724C329.472 251.247 326.317 248.437 329.804 236.971L281.336 239.249Z" fill="#FFB7B7"/>
<path d="M314.854 164.078H296.69L288.89 178.193L285.173 177.976C283.355 177.87 281.536 178.157 279.827 178.82C278.117 179.482 276.554 180.507 275.231 181.83C273.909 183.153 272.855 184.748 272.136 186.516C271.416 188.285 271.044 190.19 271.044 192.115L275.624 199.622C275.624 199.622 267.434 214.716 279.232 222.142C279.232 222.142 277.127 236.133 279.232 235.982C281.336 235.832 286.183 232.984 281.336 235.832C276.489 238.679 276.851 239.062 277.478 239.725L278.105 240.388L329.069 249.437C329.069 249.437 330.559 238.99 330.72 237.126C330.881 235.262 329.804 239.818 330.881 235.262C331.958 230.706 333.573 232.415 331.958 230.706C330.342 228.998 342.426 207.832 337.461 199.621L345.421 191.411C345.421 183.536 333.46 177.151 326.013 177.151H325.059L314.854 164.078Z" fill="#57A773"/>
<path d="M271.091 506.248H263.739L260.241 476.26L271.091 476.261L271.091 506.248Z" fill="#A0616A"/>
<path d="M248.901 517.719C248.905 518.589 249.233 519.424 249.815 520.04C250.397 520.657 251.185 521.005 252.008 521.011H265.848L266.277 520.071L268.234 515.8L268.992 520.071L269.16 521.011H274.38L274.305 520.065L272.913 502.413L271.093 502.295L263.225 501.802L261.293 501.677V506.948C259.826 508.597 248.317 514.834 248.901 517.719Z" fill="#2F2E41"/>
<path d="M380.35 485.884L374.167 490.09L355.884 466.872L365.01 460.665L380.35 485.884Z" fill="#A0616A"/>
<path d="M367.558 508.226C368.006 508.957 368.709 509.471 369.514 509.656C370.318 509.842 371.16 509.684 371.855 509.218L383.494 501.3L383.374 500.264L382.835 495.552L385.658 498.71L386.28 499.404L390.67 496.418L390.123 495.665L379.922 481.616L378.33 482.558L371.461 486.645L369.772 487.646L372.468 492.078C372.079 494.305 365.59 506.134 367.558 508.226Z" fill="#2F2E41"/>
<path d="M414.645 522.603L187.001 522.838C186.774 522.837 186.556 522.74 186.396 522.57C186.236 522.4 186.146 522.169 186.146 521.929C186.146 521.689 186.236 521.458 186.396 521.288C186.556 521.118 186.774 521.021 187.001 521.02L414.645 520.785C414.872 520.787 415.09 520.883 415.25 521.053C415.41 521.224 415.5 521.454 415.5 521.694C415.5 521.935 415.41 522.165 415.25 522.335C415.09 522.506 414.872 522.602 414.645 522.603Z" fill="#CACACA"/>
<path d="M333.257 263.092C333.257 263.092 298.412 282.583 279.982 269.285C279.982 269.285 275.95 289.934 274.335 291.642C272.719 293.351 270.145 294.095 271.971 296.001C273.796 297.907 274.813 300.481 271.343 303.75C267.873 307.019 264.412 305.981 267.758 309.348C271.104 312.714 257.64 395.29 257.64 395.29C257.64 395.29 259.795 472.083 257.64 474.406C255.486 476.728 252.607 477.248 255.393 480.12C258.179 482.993 258.179 480.765 258.179 484.726V488.688L259.454 492.625H276.939C276.939 492.625 281.159 487.441 276.939 482.939C272.719 478.437 278.223 477.205 279.51 472.98C280.797 468.755 282.951 473.311 280.797 468.755C278.643 464.199 277.608 465.066 277.587 462.07C277.566 459.074 309.339 341.758 309.339 341.758L313.188 406.691L359.477 477.803L373.102 466.997C373.102 466.997 363.182 452.229 365.502 450.199C367.821 448.169 358.665 445.622 361.552 443.332C364.44 441.042 357.489 438.734 360.109 435.699C362.728 432.663 356.499 425.011 352.89 425.011C349.281 425.011 344.215 412.257 344.215 412.257L351.777 311.498L333.257 263.092Z" fill="#2F2E41"/>
<path d="M296.325 122.631C296.079 122.974 294.114 122.789 291.751 122.424C287.08 121.703 286.443 122.56 282.951 125.919C277.893 130.785 280.769 160.464 278.283 166.894L277.48 167.52C279.073 167.198 280.637 166.735 282.157 166.136C283.015 163.272 283.876 160.399 284.742 157.538C285.56 159.764 286.074 162.102 286.269 164.482C287.472 163.981 288.667 162.755 293.692 161.111C296.222 159.296 314.526 157.471 316.879 156.672C322.851 135.184 313.227 126.495 296.325 122.631Z" fill="#2F2E41"/>
<path d="M302.505 155.766C312.165 155.766 319.997 147.484 319.997 137.269C319.997 127.053 312.165 118.771 302.505 118.771C292.845 118.771 285.013 127.053 285.013 137.269C285.013 147.484 292.845 155.766 302.505 155.766Z" fill="#FFB7B7"/>
<path d="M313.518 121.001C312.532 120.847 311.583 120.495 310.722 119.965C310.295 119.692 309.95 119.298 309.725 118.828C309.5 118.357 309.404 117.83 309.449 117.305C309.665 115.99 311.07 115.206 312.329 115.286C313.583 115.477 314.774 115.986 315.8 116.771C315.687 115.501 315.174 114.308 314.343 113.383C313.512 112.458 312.411 111.856 311.217 111.673C312.873 111.578 314.595 111.495 316.126 112.169C317.657 112.842 318.933 114.51 318.657 116.239C321.232 115.888 323.77 117.785 324.833 120.29C325.896 122.794 325.685 125.735 324.836 128.329C324.752 128.726 324.589 129.099 324.357 129.424C324.125 129.749 323.829 130.017 323.49 130.21C322.624 130.558 321.692 129.974 320.941 129.4C317.019 126.397 313.45 122.911 310.309 119.016" fill="#2F2E41"/>
<path d="M321.144 156.934C320.402 157.303 320.789 158.677 320.212 159.292C319.962 159.552 319.661 159.751 319.329 159.873C319.242 158.726 318.99 157.601 318.581 156.535C318.505 156.342 318.381 156.125 318.187 156.143C317.961 156.171 317.902 156.484 317.897 156.718C317.851 157.876 317.608 159.016 317.18 160.083C317.175 160.095 317.17 160.112 317.164 160.123C316.997 160.118 316.825 160.112 316.663 160.106C315.414 160.055 312.646 156.661 312.032 157.811C314.197 153.751 316.836 147.646 317.24 143.004C317.38 142.033 317.312 141.04 317.04 140.1C316.899 139.632 316.633 139.217 316.275 138.904C315.917 138.591 315.482 138.394 315.021 138.334C314.793 138.323 314.567 138.366 314.356 138.458C314.146 138.551 313.958 138.692 313.805 138.87C313.652 139.048 313.539 139.26 313.472 139.491C313.406 139.721 313.389 139.964 313.421 140.202L313.109 140.157C310.212 137.662 312.711 133.329 309.339 131.614C308.198 131.033 301.208 132.975 299.974 132.634C299.948 131.26 299.683 129.903 299.194 128.63C299.118 128.437 298.994 128.22 298.8 128.237C298.574 128.266 298.515 128.579 298.51 128.812C298.464 129.971 298.221 131.111 297.793 132.178C296.085 131.922 294.346 132.019 292.672 132.463C291.196 132.873 289.796 133.579 288.315 133.955C287.583 134.192 286.813 134.269 286.052 134.181C285.291 134.093 284.555 133.842 283.888 133.442C282.009 132.11 281.681 129.16 282.618 126.984C283.296 125.588 284.212 124.337 285.321 123.294C286.166 122.428 287.044 121.597 287.922 120.765C288.708 120.019 289.495 119.273 290.281 118.527C291.271 117.542 292.325 116.633 293.437 115.805C295.211 114.575 297.205 113.742 299.295 113.356C301.385 112.97 303.528 113.04 305.591 113.561C308.068 114.188 311.38 113.305 313.648 114.53C314.832 115.173 317.455 117.639 318.494 118.516C321.155 120.754 319.354 118.93 322.264 120.224C329.202 123.31 326.134 154.45 321.144 156.934Z" fill="#2F2E41"/>
<path d="M127.473 291.944C187.382 291.944 235.949 240.585 235.949 177.231C235.949 113.877 187.382 62.5179 127.473 62.5179C67.5633 62.5179 18.997 113.877 18.997 177.231C18.997 240.585 67.5633 291.944 127.473 291.944Z" fill="white"/>
<path d="M127.473 293.089C67.0621 293.089 17.9143 241.115 17.9143 177.231C17.9143 113.346 67.0622 61.3727 127.473 61.3727C187.883 61.3727 237.031 113.346 237.031 177.231C237.031 241.115 187.884 293.089 127.473 293.089ZM127.473 63.6628C68.2563 63.6628 20.0799 114.609 20.0799 177.231C20.0799 239.852 68.2563 290.798 127.473 290.798C186.689 290.798 234.866 239.852 234.866 177.231C234.866 114.609 186.689 63.6628 127.473 63.6628Z" fill="#57A773"/>
<path d="M112.674 236.934C110.801 236.934 108.954 236.472 107.278 235.586C105.603 234.7 104.146 233.413 103.022 231.828L73.4284 190.1C72.4778 188.76 71.7861 187.234 71.3929 185.611C70.9997 183.988 70.9126 182.299 71.1368 180.64C71.3609 178.981 71.8918 177.385 72.6992 175.943C73.5065 174.502 74.5746 173.242 75.8422 172.237C77.1099 171.231 78.5524 170.5 80.0874 170.084C81.6224 169.668 83.2198 169.576 84.7884 169.813C86.357 170.05 87.8661 170.612 89.2296 171.465C90.593 172.319 91.7841 173.449 92.7348 174.789L112.096 202.087L161.823 123.208C163.599 120.395 166.359 118.442 169.496 117.78C172.633 117.117 175.891 117.799 178.552 119.676C181.214 121.552 183.062 124.47 183.691 127.787C184.319 131.104 183.676 134.549 181.903 137.365L122.716 231.251C121.645 232.949 120.205 234.351 118.516 235.339C116.827 236.327 114.939 236.872 113.01 236.929C112.898 236.931 112.786 236.934 112.674 236.934Z" fill="#57A773"/>
<path d="M239.235 69.6851C239.536 67.4919 237.364 65.3422 234.383 64.8835C231.402 64.4248 228.74 65.8308 228.439 68.024C228.137 70.2171 230.309 72.3669 233.29 72.8256C236.271 73.2843 238.933 71.8782 239.235 69.6851Z" fill="#E6E6E6"/>
<path d="M274.729 66.0226C275.031 63.8294 272.859 61.6797 269.877 61.221C266.896 60.7623 264.235 62.1683 263.933 64.3615C263.631 66.5546 265.803 68.7044 268.785 69.1631C271.766 69.6218 274.427 68.2157 274.729 66.0226Z" fill="#3F3D56"/>
<path d="M229.515 39.297C229.816 37.1039 227.644 34.9541 224.663 34.4954C221.682 34.0367 219.02 35.4428 218.719 37.6359C218.417 39.8291 220.589 41.9788 223.57 42.4375C226.551 42.8962 229.213 41.4902 229.515 39.297Z" fill="#FF6584"/>
<path d="M214.092 26.8495C214.106 24.8361 213.044 23.1953 211.719 23.1847C210.395 23.1741 209.31 24.7977 209.295 26.8111C209.281 28.8245 210.343 30.4653 211.667 30.4759C212.992 30.4865 214.077 28.8629 214.092 26.8495Z" fill="#E6E6E6"/>
<path d="M208.861 3.66479C208.875 1.65139 207.813 0.0106157 206.489 2.45051e-05C205.165 -0.0105667 204.079 1.61304 204.065 3.62644C204.05 5.63984 205.112 7.28062 206.437 7.29121C207.761 7.3018 208.847 5.6782 208.861 3.66479Z" fill="#3F3D56"/>
<path d="M249.534 44.4682C249.549 42.4548 248.487 40.814 247.162 40.8034C245.838 40.7928 244.753 42.4164 244.738 44.4298C244.724 46.4432 245.786 48.084 247.11 48.0946C248.435 48.1052 249.52 46.4816 249.534 44.4682Z" fill="#E6E6E6"/>
<path d="M232.382 53.5248C232.396 51.5114 231.334 49.8706 230.01 49.86C228.685 49.8494 227.6 51.473 227.585 53.4864C227.571 55.4998 228.633 57.1405 229.957 57.1511C231.282 57.1617 232.367 55.5382 232.382 53.5248Z" fill="#FF6584"/>
<path d="M256.259 70.2637C256.273 68.2503 255.211 66.6095 253.887 66.5989C252.562 66.5883 251.477 68.2119 251.463 70.2253C251.448 72.2387 252.51 73.8794 253.835 73.89C255.159 73.9006 256.245 72.2771 256.259 70.2637Z" fill="#3F3D56"/>
<path d="M35.6699 341.443C35.9717 339.25 33.7995 337.101 30.8182 336.642C27.837 336.183 25.1756 337.589 24.8739 339.782C24.5721 341.976 26.7443 344.125 29.7255 344.584C32.7068 345.043 35.3682 343.637 35.6699 341.443Z" fill="#E6E6E6"/>
<path d="M71.1649 337.781C71.4666 335.588 69.2945 333.438 66.3132 332.979C63.332 332.52 60.6706 333.926 60.3689 336.12C60.0671 338.313 62.2393 340.463 65.2205 340.921C68.2018 341.38 70.8631 339.974 71.1649 337.781Z" fill="#3F3D56"/>
<path d="M25.9504 311.055C26.2521 308.862 24.08 306.712 21.0987 306.254C18.1175 305.795 15.4561 307.201 15.1543 309.394C14.8526 311.587 17.0248 313.737 20.006 314.196C22.9872 314.654 25.6486 313.248 25.9504 311.055Z" fill="#FF6584"/>
<path d="M10.5269 298.608C10.5413 296.594 9.47926 294.954 8.15479 294.943C6.83032 294.933 5.74493 296.556 5.73054 298.569C5.71614 300.583 6.77818 302.224 8.10266 302.234C9.42713 302.245 10.5125 300.621 10.5269 298.608Z" fill="#E6E6E6"/>
<path d="M5.29647 275.423C5.31091 273.41 4.24892 271.769 2.92445 271.758C1.59997 271.748 0.514577 273.371 0.50014 275.385C0.485703 277.398 1.54769 279.039 2.87216 279.05C4.19664 279.06 5.28203 277.436 5.29647 275.423Z" fill="#3F3D56"/>
<path d="M45.9699 316.227C45.9843 314.213 44.9222 312.572 43.5977 312.562C42.2733 312.551 41.1879 314.175 41.1735 316.188C41.1591 318.202 42.2211 319.842 43.5456 319.853C44.8701 319.864 45.9555 318.24 45.9699 316.227Z" fill="#E6E6E6"/>
<path d="M28.8171 325.283C28.8315 323.27 27.7695 321.629 26.445 321.618C25.1205 321.608 24.0352 323.231 24.0208 325.245C24.0064 327.258 25.0684 328.899 26.3929 328.91C27.7173 328.92 28.8027 327.297 28.8171 325.283Z" fill="#FF6584"/>
<path d="M52.6943 342.022C52.7087 340.009 51.6466 338.368 50.3222 338.357C48.9977 338.347 47.9124 339.97 47.898 341.984C47.8836 343.997 48.9456 345.638 50.27 345.648C51.5945 345.659 52.6799 344.035 52.6943 342.022Z" fill="#3F3D56"/>
</g>
<defs>
<clipPath id="clip0_33_78">
<rect width="415" height="523" fill="white" transform="translate(0.5)"/>
</clipPath>
</defs>
</svg>
