<svg width="93" height="36" viewBox="0 0 93 36" fill="none" xmlns="http://www.w3.org/2000/svg">
<path d="M12.1484 9.24609V12.9727H7.54297V27H3.07812V12.9727H0.371094V9.24609H3.07812V7.66406C3.07812 6.30469 3.35938 5.14453 3.92188 4.18359C4.50781 3.19922 5.26953 2.44922 6.20703 1.93359C7.14453 1.41797 8.17578 1.16016 9.30078 1.16016C10.0508 1.16016 10.707 1.24219 11.2695 1.40625C11.832 1.57031 12.3242 1.79297 12.7461 2.07422V5.80078C11.9727 5.33203 11.082 5.10938 10.0742 5.13281C9.37109 5.15625 8.77344 5.39063 8.28125 5.83594C7.78906 6.25781 7.54297 6.96094 7.54297 7.94531V9.24609H12.1484ZM18.4864 0C19.3302 0 20.0567 0.304687 20.6661 0.914062C21.2755 1.5 21.5802 2.20312 21.5802 3.02344C21.5802 3.82031 21.2755 4.52344 20.6661 5.13281C20.0567 5.74219 19.3302 6.04688 18.4864 6.04688C17.6427 6.04688 16.9161 5.74219 16.3067 5.13281C15.7208 4.52344 15.4278 3.82031 15.4278 3.02344C15.4278 2.20312 15.7208 1.5 16.3067 0.914062C16.9161 0.304687 17.6427 0 18.4864 0ZM21.088 9.24609V27H16.6231V13.043H13.7755V9.24609H21.088ZM33.8947 8.78906C35.6291 8.78906 37.2111 9.21094 38.6408 10.0547C40.0705 10.875 41.2189 12 42.0861 13.4297C42.9767 14.8359 43.422 16.418 43.422 18.1758C43.422 19.9336 42.9767 21.5156 42.0861 22.9219C41.2189 24.3281 40.0705 25.4531 38.6408 26.2969C37.2111 27.1172 35.6291 27.5273 33.8947 27.5273C32.1838 27.5273 30.6017 27.1172 29.1486 26.2969C27.7189 25.4531 26.5705 24.3281 25.7033 22.9219C24.8361 21.5156 24.4025 19.9336 24.4025 18.1758C24.4025 16.418 24.8361 14.8359 25.7033 13.4297C26.5705 12 27.7189 10.875 29.1486 10.0547C30.6017 9.21094 32.1838 8.78906 33.8947 8.78906ZM33.8947 13.1133C33.0509 13.1133 32.2658 13.3125 31.5392 13.7109C30.8127 14.1094 30.2267 14.6836 29.7814 15.4336C29.3595 16.1836 29.1486 17.0977 29.1486 18.1758C29.1486 19.2539 29.3595 20.168 29.7814 20.918C30.2267 21.668 30.8127 22.2422 31.5392 22.6406C32.2658 23.0156 33.0509 23.2031 33.8947 23.2031C34.7384 23.2031 35.5236 23.0156 36.2502 22.6406C36.9767 22.2422 37.5627 21.668 38.008 20.918C38.4533 20.168 38.6759 19.2539 38.6759 18.1758C38.6759 17.0977 38.4533 16.1836 38.008 15.4336C37.5627 14.6836 36.9767 14.1094 36.2502 13.7109C35.5236 13.3125 34.7384 13.1133 33.8947 13.1133ZM56.7209 8.78906C58.1272 8.78906 59.428 9.15234 60.6233 9.87891C61.842 10.582 62.8147 11.625 63.5412 13.0078C64.2912 14.3672 64.6662 16.0312 64.6662 18C64.6662 19.9688 64.2912 21.668 63.5412 23.0977C62.8147 24.5273 61.8186 25.6289 60.553 26.4023C59.3108 27.1523 57.928 27.5273 56.4045 27.5273C55.4202 27.5273 54.4358 27.293 53.4514 26.8242C52.4905 26.332 51.6819 25.7227 51.0256 24.9961V35.4375H46.5608V9.24609H51.0256V12.2344C51.5412 11.2734 52.2912 10.4648 53.2756 9.80859C54.26 9.12891 55.4084 8.78906 56.7209 8.78906ZM55.5959 13.2539C54.7991 13.2539 54.0491 13.4648 53.3459 13.8867C52.6428 14.2852 52.0686 14.8594 51.6233 15.6094C51.2014 16.3594 51.0022 17.2617 51.0256 18.3164V20.8828C51.6584 21.5391 52.3381 22.0898 53.0647 22.5352C53.8147 22.957 54.6233 23.168 55.4905 23.168C56.4045 23.168 57.2014 22.9219 57.8811 22.4297C58.5608 21.9375 59.0881 21.3047 59.4631 20.5312C59.8381 19.7344 60.0256 18.8906 60.0256 18C60.0256 16.6641 59.6155 15.5391 58.7952 14.625C57.9983 13.7109 56.9319 13.2539 55.5959 13.2539ZM70.6527 9.24609L75.7152 20.5664L80.637 9.24609H85.7347L72.8323 35.4375H67.7698L73.1136 25.6992L65.4495 9.24609H70.6527ZM89.8578 22.0078C90.6312 22.0078 91.2875 22.2891 91.8266 22.8516C92.3891 23.3906 92.6703 24.0469 92.6703 24.8203C92.6703 25.5938 92.3891 26.2617 91.8266 26.8242C91.2875 27.3633 90.6312 27.6328 89.8578 27.6328C89.0844 27.6328 88.4164 27.3633 87.8539 26.8242C87.3148 26.2617 87.0453 25.5938 87.0453 24.8203C87.0453 24.0469 87.3148 23.3906 87.8539 22.8516C88.4164 22.2891 89.0844 22.0078 89.8578 22.0078Z" fill="#37393A"/>
</svg>
