<svg width="498" height="464" viewBox="0 0 498 464" fill="none" xmlns="http://www.w3.org/2000/svg">
<path d="M335.687 328.935H157.041C142.025 328.935 129.808 316.728 129.808 301.723V123.213C129.808 108.208 142.025 96.0007 157.041 96.0007H335.687C350.703 96.0007 362.92 108.208 362.92 123.213V301.723C362.92 316.728 350.703 328.935 335.687 328.935ZM157.041 100.355C144.407 100.355 134.165 110.589 134.165 123.213V301.723C134.165 314.348 144.407 324.581 157.041 324.581H282.178C324.364 324.581 358.562 290.409 358.562 248.255V123.213C358.562 110.589 348.321 100.355 335.687 100.355H157.041V100.355Z" fill="#F2F2F2"/>
<path d="M176.301 118.918C167.845 118.918 160.967 125.791 160.967 134.24V158.222C160.967 166.67 167.845 173.544 176.301 173.544H200.301C208.756 173.544 215.634 166.67 215.634 158.222V134.24C215.634 125.791 208.756 118.918 200.301 118.918H176.301Z" fill="#F2F2F2"/>
<path d="M176.301 186.43C167.845 186.43 160.967 193.304 160.967 201.752V225.734C160.967 234.183 167.845 241.056 176.301 241.056H200.301C208.756 241.056 215.634 234.183 215.634 225.734V201.752C215.634 193.304 208.756 186.43 200.301 186.43H176.301Z" fill="#F2F2F2"/>
<path d="M176.301 253.943C167.845 253.943 160.967 260.816 160.967 269.265V293.247C160.967 301.696 167.845 308.569 176.301 308.569H200.301C208.756 308.569 215.634 301.696 215.634 293.247V269.265C215.634 260.816 208.756 253.943 200.301 253.943H176.301Z" fill="#F2F2F2"/>
<path d="M192.216 60.4069C181.562 60.4069 172.895 69.0672 172.895 79.7129V109.931C172.895 120.577 181.562 129.237 192.216 129.237H222.457C233.111 129.237 241.778 120.577 241.778 109.931V79.7129C241.778 69.0672 233.111 60.4069 222.457 60.4069H192.216Z" fill="#57A773"/>
<path d="M291.777 144.854C281.123 144.854 272.456 153.514 272.456 164.16V194.378C272.456 205.024 281.123 213.684 291.777 213.684H322.018C332.672 213.684 341.339 205.024 341.339 194.378V164.16C341.339 153.514 332.672 144.854 322.018 144.854H291.777Z" fill="#57A773"/>
<path d="M248.493 449.011L242.349 448.96L239.63 424.729L248.697 424.805L248.493 449.011Z" fill="#FFB7B7"/>
<path d="M228.815 458.773C228.801 460.284 230.02 461.528 231.538 461.542L243.753 461.644L245.891 457.312L246.676 461.666L251.285 461.707L250.121 446.181L248.518 446.074L241.977 445.624L239.867 445.483L239.83 449.876L230.018 456.526C229.272 457.033 228.822 457.872 228.815 458.773H228.815Z" fill="#2F2E41"/>
<path d="M279.751 449.011L273.607 448.96L270.887 424.729L279.955 424.805L279.751 449.011Z" fill="#FFB7B7"/>
<path d="M260.072 458.773C260.059 460.284 261.278 461.528 262.795 461.542L275.01 461.644L277.148 457.312L277.934 461.666L282.543 461.707L281.379 446.181L279.775 446.074L273.235 445.624L271.125 445.483L271.088 449.876L261.276 456.526C260.529 457.033 260.08 457.872 260.072 458.773Z" fill="#2F2E41"/>
<path d="M224.385 253.108L249.288 253.894L272.88 259.132C272.88 259.132 270.521 262.014 278.385 269.872C278.385 269.872 288.87 288.207 281.53 306.019L278.385 377.265C278.385 377.265 287.556 427.489 280.549 443.473L271.287 444.052L255.616 377.844L247.977 306.543L244.307 376.741C244.307 376.741 258.347 424.924 249.481 444.052L239.451 443.473L222.288 376.741C222.288 376.741 214.948 299.732 215.997 285.064C217.045 270.396 224.385 253.108 224.385 253.108Z" fill="#2F2E41"/>
<path d="M308.014 140.528C304.61 141.409 302.564 144.88 303.446 148.282C303.85 149.841 304.802 151.109 306.038 151.947L306.038 151.955L305.555 163.644L314.506 167.783L315.221 149.796L315.158 149.798C315.935 148.417 316.203 146.747 315.774 145.092C314.892 141.691 311.418 139.647 308.014 140.528V140.528Z" fill="#FFB7B7"/>
<path d="M257.984 182.244C256.104 180.381 255.013 177.856 254.972 175.11C254.917 171.426 256.764 168.083 259.914 166.166C263.54 163.959 268.075 164.183 271.467 166.735L299.576 187.883L304.585 157.417L315.338 160.876L312.772 200.547C312.593 203.322 311.023 205.766 308.574 207.086C306.124 208.405 303.218 208.372 300.799 206.997L260.177 183.903C259.361 183.439 258.626 182.88 257.984 182.244V182.244Z" fill="#3F3D56"/>
<path d="M215.123 123.487C216.92 126.507 215.926 130.411 212.903 132.207C211.518 133.03 209.949 133.261 208.48 132.986L208.474 132.992L200.582 141.632L191.308 138.274L203.474 124.999L203.517 125.044C203.939 123.517 204.925 122.142 206.396 121.269C209.419 119.473 213.326 120.466 215.123 123.487Z" fill="#FFB7B7"/>
<path d="M218.532 187.944L173.412 175.765C170.726 175.04 168.639 173.019 167.829 170.359C167.019 167.698 167.627 164.858 169.455 162.761L195.584 132.784L205.658 137.893L187.749 163.052L222.611 167.809C226.818 168.383 230.196 171.415 231.216 175.534C232.102 179.11 231.059 182.784 228.424 185.361C226.46 187.283 223.906 188.308 221.259 188.308C220.354 188.308 219.438 188.188 218.532 187.944H218.532Z" fill="#3F3D56"/>
<path d="M282.857 263.59L219.763 266.482C218.031 263.852 218.5 259.898 220.927 254.947C230.089 236.253 223.131 200.888 218.449 182.473C217.136 177.306 220.662 172.17 225.97 171.639L231.919 171.045L237.418 154.271H256.677L264.667 163.392L278.227 171.623C275.759 197.026 265.242 232.898 280.224 250.888C283.501 254.822 284.43 259.077 282.857 263.59Z" fill="#3F3D56"/>
<path d="M244.598 154.658C254.958 154.658 263.357 146.266 263.357 135.914C263.357 125.561 254.958 117.169 244.598 117.169C234.238 117.169 225.839 125.561 225.839 135.914C225.839 146.266 234.238 154.658 244.598 154.658Z" fill="#FFB7B7"/>
<path d="M265.825 123.915C268.435 114.407 239.99 106.253 234.462 113.91C233.693 112.822 230.852 112.16 229.549 112.494C228.246 112.828 227.15 113.663 226.08 114.471C224.61 115.6 223.086 116.769 222.184 118.392C221.274 120.008 221.134 122.212 222.357 123.615C223.326 124.73 225.029 130.657 226.487 130.951C227.502 131.158 228.358 131.325 229.093 131.445C229.748 130.49 231.419 129.29 231.298 128.135C232.288 128.789 231.926 129.941 231.727 131.118C231.063 135.037 216.1 165.374 224.67 156.434C225.519 156.935 226.568 157.403 227.778 157.83C229.83 154.738 231.514 151.091 232.624 147.278L232.632 147.348C233.014 150.662 235.437 153.382 238.644 154.31C251.508 158.034 261.913 152.569 265.492 142.716C264.182 140.057 263.611 140.346 263.729 140.267C265.364 139.166 267.612 139.886 268.316 141.728C268.523 142.271 268.711 142.734 268.874 143.083C270.739 136.418 272.957 137.38 265.825 123.915H265.825Z" fill="#2F2E41"/>
<path d="M256.951 117.017L255.637 110.304C255.527 109.74 255.422 109.128 255.677 108.612C256.004 107.949 256.845 107.675 257.576 107.781C258.308 107.886 258.855 108.554 259.583 108.683C262.115 109.13 265.46 106.631 266.367 112.952C266.745 115.587 270.953 115.865 272.359 118.126C273.764 120.388 273.936 123.652 272.019 125.5C270.487 126.975 268.027 127.146 266.038 126.392C264.048 125.638 262.452 124.116 261.057 122.51C259.662 120.905 258.399 119.167 256.791 117.776" fill="#2F2E41"/>
<path d="M266.827 127.226C261.694 126.51 258.196 124.644 256.428 121.682C254.115 117.805 255.665 113.535 255.732 113.355L256.817 113.758C256.802 113.798 255.397 117.706 257.429 121.1C259.01 123.74 262.226 125.416 266.987 126.081L266.827 127.226Z" fill="#57A773"/>
<path d="M290.915 54.6964C275.825 54.6964 263.547 42.4271 263.547 27.3482C263.547 12.2693 275.825 0 290.915 0C306.006 0 318.284 12.2693 318.284 27.3482C318.284 42.4271 306.006 54.6964 290.915 54.6964ZM290.915 10.9393C281.86 10.9393 274.494 18.2998 274.494 27.3482C274.494 36.3966 281.86 43.7571 290.915 43.7571C299.971 43.7571 307.337 36.3966 307.337 27.3482C307.337 18.2998 299.971 10.9393 290.915 10.9393Z" fill="#57A773"/>
<path d="M333.025 73.2819C331.683 73.2819 330.338 72.7932 329.283 71.8024L303.595 47.7472C301.387 45.6827 301.275 42.2214 303.344 40.0181C305.407 37.8068 308.871 37.6973 311.079 39.7671L336.766 63.8222C338.974 65.8867 339.086 69.348 337.018 71.5513C335.941 72.7024 334.484 73.2819 333.025 73.2819Z" fill="#57A773"/>
<path d="M449.121 448.397C450.982 448.514 452.01 446.203 450.602 444.857L450.462 444.3C450.481 444.256 450.499 444.211 450.518 444.167C452.4 439.682 458.779 439.713 460.645 444.204C462.301 448.19 464.41 452.183 464.929 456.398C465.162 458.258 465.057 460.154 464.644 461.979C468.525 453.508 470.567 444.258 470.567 434.956C470.567 432.618 470.439 430.281 470.177 427.95C469.962 426.043 469.665 424.147 469.281 422.269C467.204 412.118 462.706 402.449 456.219 394.373C453.1 392.67 450.499 390.007 448.928 386.815C448.364 385.664 447.922 384.426 447.712 383.164C448.067 383.21 449.05 377.809 448.783 377.478C449.277 376.728 450.163 376.355 450.703 375.623C453.389 371.983 457.091 372.619 459.023 377.565C463.151 379.647 463.191 383.099 460.658 386.42C459.047 388.532 458.825 391.391 457.412 393.652C457.557 393.839 457.708 394.019 457.854 394.205C460.521 397.624 462.828 401.298 464.773 405.159C464.224 400.868 465.035 395.699 466.419 392.368C467.993 388.571 470.945 385.374 473.545 382.092C476.667 378.15 483.07 379.87 483.62 384.868C483.625 384.916 483.63 384.964 483.635 385.013C483.249 385.23 482.871 385.462 482.502 385.706C480.394 387.099 481.122 390.363 483.62 390.748L483.676 390.757C483.537 392.147 483.298 393.525 482.949 394.879C486.284 407.766 479.084 412.459 468.804 412.67C468.577 412.787 468.356 412.903 468.129 413.013C469.171 415.944 470.003 418.949 470.62 421.996C471.172 424.688 471.556 427.409 471.772 430.142C472.039 433.589 472.016 437.055 471.725 440.496L471.743 440.374C472.481 436.584 474.541 433.043 477.532 430.589C481.987 426.932 488.282 425.586 493.088 422.646C495.402 421.231 498.367 423.06 497.963 425.74L497.943 425.868C497.227 426.159 496.529 426.496 495.854 426.874C495.468 427.092 495.09 427.323 494.72 427.567C492.613 428.96 493.341 432.225 495.838 432.61L495.895 432.618C495.936 432.624 495.971 432.63 496.011 432.636C494.784 435.549 493.073 438.252 490.932 440.584C488.847 451.833 479.891 452.901 470.311 449.625H470.305C469.258 454.183 467.728 458.636 465.761 462.881H449.528C449.469 462.7 449.417 462.514 449.365 462.334C450.866 462.427 452.379 462.34 453.857 462.067C452.652 460.59 451.448 459.101 450.243 457.625C450.214 457.596 450.191 457.567 450.168 457.537C449.557 456.782 448.94 456.032 448.329 455.276L448.329 455.275C448.29 452.955 448.569 450.642 449.12 448.398L449.121 448.397Z" fill="#F2F2F2"/>
<path d="M33 463C33 463.555 33.446 464 34.0013 464H496.999C497.554 464 498 463.555 498 463C498 462.445 497.554 462 496.999 462H34.0013C33.446 462 33 462.445 33 463Z" fill="#CCCCCC"/>
</svg>
