<svg width="496" height="464" viewBox="0 0 496 464" fill="none" xmlns="http://www.w3.org/2000/svg">
<g clip-path="url(#clip0_6_72)">
<path d="M458.504 354.974L480.755 358.452C488.287 349.33 493.479 338.508 495.88 326.924C479.61 340.245 454.867 333.167 435.138 340.439C429.003 342.755 423.466 346.421 418.94 351.168C414.413 355.914 411.013 361.619 408.99 367.858L398.116 379.56C407.959 383.458 418.531 385.175 429.101 384.593C439.672 384.011 449.991 381.143 459.347 376.188C464.568 373.357 469.412 369.878 473.764 365.836C465.979 360.933 458.504 354.974 458.504 354.974Z" fill="#F2F2F2"/>
<path d="M450.605 319.38L472.071 312.567C474.746 301.043 474.567 289.041 471.551 277.602C462.929 296.782 437.627 301.484 423.211 316.793C418.752 321.603 415.432 327.354 413.497 333.622C411.562 339.889 411.061 346.512 412.033 352.999L407.518 368.323C418.066 367.421 428.294 364.242 437.495 359.006C446.697 353.769 454.654 346.6 460.819 337.992C464.23 333.128 467.014 327.854 469.107 322.295C459.953 321.379 450.605 319.38 450.605 319.38Z" fill="#F2F2F2"/>
<path d="M496 386.649C496 386.764 495.978 386.877 495.934 386.984C495.89 387.09 495.826 387.186 495.745 387.268C495.664 387.349 495.567 387.413 495.461 387.457C495.355 387.501 495.241 387.523 495.126 387.523H0.873564C0.641881 387.523 0.419684 387.431 0.255859 387.267C0.0920346 387.103 0 386.881 0 386.649C0 386.417 0.0920346 386.195 0.255859 386.031C0.419684 385.867 0.641881 385.775 0.873564 385.775H495.126C495.241 385.775 495.355 385.797 495.461 385.841C495.567 385.885 495.664 385.949 495.745 386.03C495.826 386.111 495.89 386.208 495.934 386.314C495.978 386.42 496 386.534 496 386.649Z" fill="#CCCCCC"/>
<path d="M204.808 349.399C291.975 349.399 362.637 278.722 362.637 191.538C362.637 104.353 291.975 33.6765 204.808 33.6765C117.642 33.6765 46.9799 104.353 46.9799 191.538C46.9799 278.722 117.642 349.399 204.808 349.399Z" fill="#2A2D34"/>
<path d="M340.614 191.538C340.63 212.733 335.68 233.637 326.161 252.573C316.642 271.51 302.819 287.951 285.8 300.58C284.662 301.431 283.502 302.261 282.335 303.069C259.577 318.892 232.524 327.372 204.808 327.372C177.092 327.372 150.039 318.892 127.282 303.069C126.114 302.261 124.954 301.431 123.817 300.58C106.81 287.94 92.9951 271.496 83.4773 252.562C73.9595 233.629 69.0024 212.73 69.0024 191.538C69.0024 170.346 73.9595 149.447 83.4773 130.513C92.9951 111.58 106.81 95.1357 123.817 82.4961C124.954 81.6444 126.114 80.8147 127.282 80.007C150.039 64.1843 177.092 55.7037 204.808 55.7037C232.524 55.7037 259.577 64.1843 282.335 80.007C283.502 80.8147 284.662 81.6444 285.8 82.4961C302.819 95.1246 316.642 111.566 326.161 130.503C335.68 149.439 340.63 170.343 340.614 191.538Z" fill="white"/>
<path d="M204.808 315.624C273.325 315.624 328.869 260.069 328.869 191.538C328.869 123.007 273.325 67.4515 204.808 67.4515C136.292 67.4515 80.7478 123.007 80.7478 191.538C80.7478 260.069 136.292 315.624 204.808 315.624Z" fill="#57A773"/>
<path d="M204.808 315.624C273.325 315.624 328.869 260.069 328.869 191.538C328.869 123.007 273.325 67.4515 204.808 67.4515C136.292 67.4515 80.7478 123.007 80.7478 191.538C80.7478 260.069 136.292 315.624 204.808 315.624Z" fill="#57A773"/>
<path opacity="0.2" d="M205.132 67.7983C203.251 67.7983 201.382 67.8475 199.522 67.9304C230.878 70.6863 260.013 85.2606 281.027 108.701C302.04 132.141 313.359 162.694 312.691 194.17C312.023 225.645 299.418 255.691 277.429 278.218C255.441 300.745 225.713 314.07 194.269 315.492C197.849 315.803 201.471 315.971 205.132 315.971C238.035 315.971 269.59 302.898 292.856 279.627C316.122 256.356 329.193 224.795 329.193 191.885C329.193 158.975 316.122 127.413 292.856 104.142C269.59 80.8717 238.035 67.7984 205.132 67.7984V67.7983Z" fill="black"/>
<path d="M205.175 58.6406C204.105 58.6425 203.079 59.0686 202.323 59.8255C201.566 60.5824 201.14 61.6085 201.138 62.6789V80.3007C201.138 81.3717 201.563 82.3989 202.32 83.1562C203.078 83.9135 204.105 84.339 205.175 84.339C206.246 84.339 207.273 83.9135 208.03 83.1562C208.788 82.3989 209.213 81.3717 209.213 80.3007V62.6789C209.211 61.6085 208.785 60.5824 208.028 59.8255C207.271 59.0686 206.246 58.6425 205.175 58.6406Z" fill="white"/>
<path d="M285.8 82.496C284.662 81.6443 283.502 80.8146 282.335 80.007C281.635 79.9613 280.935 80.0991 280.304 80.4069C279.673 80.7146 279.133 81.1816 278.738 81.7618L268.821 96.3218C268.218 97.2068 267.992 98.295 268.191 99.347C268.391 100.399 269 101.329 269.885 101.931C270.77 102.534 271.858 102.76 272.91 102.561C273.962 102.361 274.891 101.752 275.494 100.867L285.411 86.3067C285.788 85.7544 286.022 85.1164 286.09 84.4508C286.158 83.7853 286.058 83.1133 285.8 82.496Z" fill="white"/>
<path d="M330.858 148.886C330.659 148.395 330.365 147.948 329.993 147.571C329.621 147.194 329.178 146.894 328.69 146.688C328.202 146.482 327.678 146.374 327.148 146.371C326.618 146.368 326.093 146.469 325.602 146.668L309.276 153.299C308.285 153.702 307.495 154.483 307.079 155.469C306.663 156.456 306.656 157.567 307.059 158.558C307.462 159.55 308.242 160.341 309.227 160.757C310.213 161.174 311.324 161.183 312.315 160.781L328.641 154.15C329.632 153.745 330.421 152.963 330.837 151.976C331.252 150.989 331.26 149.878 330.858 148.886Z" fill="white"/>
<path d="M140.796 96.3218L130.879 81.7618C130.483 81.1816 129.944 80.7146 129.313 80.4069C128.682 80.0991 127.982 79.9613 127.282 80.007C126.114 80.8146 124.955 81.6443 123.817 82.496C123.559 83.1133 123.459 83.7853 123.527 84.4508C123.595 85.1164 123.828 85.7544 124.206 86.3067L134.123 100.867C134.726 101.752 135.655 102.361 136.707 102.561C137.759 102.76 138.847 102.534 139.732 101.931C140.617 101.329 141.226 100.399 141.425 99.347C141.625 98.295 141.399 97.2068 140.796 96.3218Z" fill="white"/>
<path d="M100.341 153.299L84.0145 146.669C83.0226 146.266 81.9113 146.273 80.9251 146.69C79.9388 147.106 79.1584 147.898 78.7555 148.89C78.3525 149.882 78.36 150.993 78.7763 151.98C79.1926 152.966 79.9836 153.747 80.9754 154.15L97.3014 160.781C98.2932 161.182 99.4039 161.174 100.389 160.757C101.375 160.341 102.155 159.55 102.558 158.558C102.961 157.566 102.953 156.456 102.537 155.469C102.122 154.483 101.332 153.702 100.341 153.299V153.299Z" fill="white"/>
<path d="M205.175 298.737C204.105 298.739 203.079 299.165 202.323 299.922C201.566 300.679 201.14 301.705 201.138 302.775V320.397C201.138 321.468 201.563 322.495 202.32 323.252C203.078 324.01 204.105 324.435 205.175 324.435C206.246 324.435 207.273 324.01 208.03 323.252C208.788 322.495 209.213 321.468 209.213 320.397V302.775C209.211 301.705 208.785 300.679 208.028 299.922C207.271 299.165 206.246 298.739 205.175 298.737Z" fill="white"/>
<path d="M285.411 296.769L275.493 282.209C275.195 281.771 274.813 281.396 274.37 281.105C273.927 280.814 273.43 280.614 272.91 280.515C272.389 280.416 271.854 280.421 271.335 280.529C270.816 280.637 270.323 280.846 269.885 281.144C269.447 281.443 269.072 281.825 268.781 282.268C268.491 282.711 268.29 283.208 268.191 283.729C268.092 284.25 268.097 284.785 268.205 285.304C268.313 285.823 268.522 286.316 268.821 286.754L278.738 301.314C279.133 301.894 279.673 302.361 280.304 302.669C280.935 302.977 281.635 303.114 282.335 303.069C283.502 302.261 284.662 301.431 285.8 300.58C286.058 299.962 286.158 299.29 286.09 298.625C286.022 297.959 285.788 297.321 285.411 296.769Z" fill="white"/>
<path d="M328.641 228.925L312.315 222.295C311.323 221.892 310.212 221.9 309.226 222.316C308.24 222.733 307.459 223.524 307.056 224.516C306.653 225.508 306.661 226.62 307.077 227.606C307.493 228.593 308.284 229.374 309.276 229.777L325.602 236.407C326.594 236.809 327.705 236.801 328.69 236.384C329.676 235.967 330.456 235.176 330.859 234.185C331.261 233.193 331.254 232.082 330.838 231.096C330.423 230.11 329.632 229.329 328.641 228.925V228.925Z" fill="white"/>
<path d="M139.732 281.144C138.847 280.542 137.759 280.316 136.707 280.515C135.655 280.715 134.726 281.324 134.123 282.209L124.206 296.769C123.828 297.321 123.595 297.959 123.527 298.625C123.459 299.29 123.559 299.962 123.817 300.58C124.955 301.431 126.114 302.261 127.282 303.069C127.982 303.114 128.682 302.977 129.313 302.669C129.944 302.361 130.483 301.894 130.879 301.314L140.796 286.754C141.094 286.316 141.304 285.823 141.412 285.304C141.52 284.785 141.524 284.25 141.426 283.729C141.327 283.208 141.126 282.711 140.836 282.268C140.545 281.825 140.17 281.443 139.732 281.144Z" fill="white"/>
<path d="M102.558 224.512C102.358 224.022 102.064 223.575 101.692 223.198C101.32 222.82 100.877 222.52 100.389 222.314C99.9007 222.109 99.3768 222.001 98.8471 221.998C98.3173 221.994 97.7921 222.095 97.3015 222.295L80.9754 228.925C79.9844 229.329 79.1942 230.11 78.7785 231.096C78.3627 232.082 78.3554 233.193 78.7582 234.185C79.161 235.176 79.9408 235.967 80.9265 236.384C81.9121 236.801 83.0228 236.809 84.0145 236.407L100.341 229.777C101.331 229.371 102.121 228.589 102.536 227.603C102.952 226.616 102.959 225.505 102.558 224.512Z" fill="white"/>
<path d="M210.414 189.534C210.787 191.741 210.269 194.007 208.974 195.833C207.679 197.659 205.713 198.896 203.507 199.274L131.862 211.463C130.769 211.649 129.65 211.618 128.569 211.372C127.488 211.125 126.467 210.668 125.562 210.027C124.658 209.385 123.889 208.572 123.299 207.633C122.709 206.694 122.31 205.648 122.124 204.555C121.938 203.462 121.969 202.343 122.215 201.262C122.462 200.181 122.919 199.159 123.56 198.254C124.202 197.35 125.015 196.581 125.953 195.991C126.892 195.4 127.938 195.001 129.031 194.815L200.676 182.626C202.883 182.253 205.148 182.771 206.973 184.066C208.799 185.361 210.036 187.328 210.414 189.534Z" fill="#3F3D56"/>
<path d="M285.819 268.928C284.79 269.963 283.392 270.548 281.932 270.554C280.473 270.56 279.07 269.986 278.033 268.959L200.908 192.422C199.873 191.393 199.288 189.996 199.283 188.536C199.278 187.076 199.853 185.674 200.88 184.638C201.908 183.602 203.305 183.016 204.765 183.01C206.224 183.004 207.626 183.577 208.663 184.604L285.788 261.14C286.823 262.17 287.408 263.568 287.414 265.028C287.419 266.488 286.846 267.89 285.819 268.928Z" fill="#3F3D56"/>
<path d="M204.808 201.083C210.079 201.083 214.351 196.81 214.351 191.538C214.351 186.266 210.079 181.993 204.808 181.993C199.538 181.993 195.265 186.266 195.265 191.538C195.265 196.81 199.538 201.083 204.808 201.083Z" fill="#CCCCCC"/>
<path d="M139.075 26.0249C124.427 49.0598 102.076 64.3468 74.5128 74.3895C73.9681 74.7975 73.3484 75.0943 72.6891 75.2627C72.0298 75.4312 71.3438 75.4682 70.6702 75.3715C69.9966 75.2747 69.3486 75.0463 68.7633 74.6991C68.178 74.352 67.6668 73.8929 67.2588 73.3481C52.2865 53.3529 55.6672 24.7759 75.4276 9.49729C80.205 5.80986 85.6671 3.10834 91.4968 1.54957C97.3265 -0.00920195 103.408 -0.394183 109.388 0.416988C115.367 1.22816 121.126 3.21932 126.33 6.27487C131.534 9.33042 136.08 13.3895 139.703 18.2164L140.117 18.7695C140.525 19.3143 140.821 19.9341 140.99 20.5935C141.158 21.253 141.195 21.9392 141.098 22.6129C141.002 23.2866 140.773 23.9347 140.426 24.5201C140.079 25.1056 139.62 25.6169 139.075 26.0249Z" fill="#2A2D34"/>
<path d="M269.914 18.2164C273.537 13.3895 278.082 9.33041 283.286 6.27486C288.49 3.21931 294.249 1.22816 300.229 0.416991C306.209 -0.39418 312.29 -0.00921 318.12 1.54956C323.95 3.10833 329.412 5.80985 334.189 9.49728C353.949 24.7759 357.33 53.3529 342.358 73.3481C341.95 73.8929 341.439 74.3519 340.853 74.6991C340.268 75.0463 339.62 75.2747 338.947 75.3714C338.273 75.4682 337.587 75.4312 336.928 75.2627C336.268 75.0942 335.649 74.7975 335.104 74.3895C309.516 64.5908 288.532 47.6342 270.541 26.0249C269.441 25.2008 268.714 23.9735 268.518 22.6128C268.323 21.2522 268.676 19.8697 269.5 18.7695L269.914 18.2164Z" fill="#2A2D34"/>
<path d="M263.494 328.303C262.561 328.828 261.873 329.701 261.583 330.731C261.292 331.761 261.421 332.864 261.942 333.799L285.243 375.447C285.766 376.382 286.639 377.07 287.669 377.361C288.7 377.652 289.803 377.521 290.738 376.998C291.672 376.476 292.36 375.603 292.651 374.572C292.942 373.542 292.812 372.438 292.29 371.503L268.989 329.855C268.464 328.922 267.592 328.235 266.562 327.944C265.532 327.653 264.428 327.782 263.494 328.303Z" fill="#2A2D34"/>
<path d="M140.628 329.855L117.327 371.503C116.804 372.438 116.674 373.542 116.965 374.572C117.256 375.603 117.945 376.476 118.879 376.999C119.813 377.521 120.917 377.652 121.947 377.361C122.978 377.07 123.851 376.382 124.374 375.447L147.675 333.799C147.934 333.337 148.099 332.827 148.162 332.301C148.224 331.774 148.182 331.24 148.038 330.73C147.894 330.219 147.65 329.742 147.322 329.326C146.994 328.909 146.586 328.561 146.124 328.302C145.661 328.043 145.152 327.878 144.625 327.816C144.098 327.754 143.565 327.796 143.054 327.94C142.544 328.085 142.067 328.328 141.651 328.656C141.235 328.985 140.887 329.392 140.628 329.855H140.628Z" fill="#2A2D34"/>
<path d="M289.962 386.111C296.855 386.111 302.442 380.523 302.442 373.629C302.442 366.736 296.855 361.147 289.962 361.147C283.07 361.147 277.483 366.736 277.483 373.629C277.483 380.523 283.07 386.111 289.962 386.111Z" fill="#2A2D34"/>
<path d="M298.771 66.7173C305.664 66.7173 311.251 61.1289 311.251 54.2352C311.251 47.3416 305.664 41.7532 298.771 41.7532C291.879 41.7532 286.292 47.3416 286.292 54.2352C286.292 61.1289 291.879 66.7173 298.771 66.7173Z" fill="#2A2D34"/>
<path d="M204.074 37.3477C210.967 37.3477 216.554 31.7593 216.554 24.8656C216.554 17.972 210.967 12.3835 204.074 12.3835C197.182 12.3835 191.595 17.972 191.595 24.8656C191.595 31.7593 197.182 37.3477 204.074 37.3477Z" fill="#2A2D34"/>
<path d="M113.782 65.2488C120.674 65.2488 126.261 59.6604 126.261 52.7667C126.261 45.8731 120.674 40.2847 113.782 40.2847C106.889 40.2847 101.302 45.8731 101.302 52.7667C101.302 59.6604 106.889 65.2488 113.782 65.2488Z" fill="#2A2D34"/>
<path d="M121.857 386.111C128.749 386.111 134.336 380.523 134.336 373.629C134.336 366.736 128.749 361.147 121.857 361.147C114.964 361.147 109.377 366.736 109.377 373.629C109.377 380.523 114.964 386.111 121.857 386.111Z" fill="#2A2D34"/>
<path d="M280.173 261.908C280.665 262.678 281.32 263.332 282.092 263.821C282.864 264.311 283.733 264.626 284.639 264.744C285.546 264.861 286.467 264.778 287.338 264.501C288.209 264.224 289.008 263.759 289.68 263.139L309.262 273.634L308.212 262.135L289.778 253.932C288.662 252.872 287.196 252.258 285.659 252.207C284.121 252.155 282.617 252.67 281.434 253.653C280.25 254.636 279.468 256.02 279.235 257.541C279.003 259.063 279.337 260.616 280.174 261.908H280.173Z" fill="#FFB7B7"/>
<path d="M294.441 265.921L302.115 255.326L339.084 272.806L385.087 264.173C387.361 263.746 389.701 263.825 391.94 264.405C394.18 264.984 396.265 266.05 398.047 267.526C399.829 269.002 401.264 270.852 402.25 272.946C403.237 275.039 403.75 277.323 403.755 279.638C403.758 283.817 402.103 287.827 399.154 290.788C396.204 293.749 392.201 295.419 388.022 295.431L335.303 295.529L294.441 265.921Z" fill="#3F3D56"/>
<path d="M282.622 448.913L274.858 445.199L285.524 412.74L296.982 418.222L282.622 448.913Z" fill="#FFB7B7"/>
<path d="M334.674 443.68C334.109 444.034 333.544 444.382 332.974 444.73C331.839 445.426 330.693 446.11 329.547 446.783C328.971 447.12 328.389 447.456 327.813 447.787V447.804L327.779 447.81L327.767 447.816L326.889 448.033L325.629 444.701L325.047 443.167L324.226 440.994L322.72 437.018L314.793 416.084L327.117 413.043L327.579 414.932H327.585L327.813 415.867L332.119 433.333L332.997 436.904L333.025 437.012L333.556 439.146L334.012 440.994L334.52 443.059L334.674 443.68Z" fill="#FFB7B7"/>
<path d="M408.191 370.164C407.41 371.419 406.611 372.669 405.807 373.906C404.313 376.211 402.779 378.481 401.205 380.717C401.205 380.723 401.199 380.723 401.194 380.728C400.275 381.579 399.261 382.32 398.171 382.936C398.125 382.97 398.074 382.993 398.028 383.022C397.226 383.465 396.372 383.808 395.485 384.043C395.166 384.122 394.84 384.202 394.521 384.282C393.369 384.556 392.229 384.79 391.094 384.995C389.075 385.355 387.079 385.611 385.094 385.771C384.935 385.788 384.775 385.799 384.615 385.811C376.454 386.41 368.51 385.446 360.218 383.866C356.123 383.09 351.943 382.16 347.615 381.196C346.2 380.877 344.78 380.563 343.343 380.249C343.235 380.227 343.121 380.198 343.007 380.175C340.954 379.725 338.866 379.28 336.728 378.84C334.036 378.287 331.259 377.751 328.373 377.243L328.578 381.31C328.749 384.439 329.399 387.523 330.506 390.454C331.738 394.059 332.713 396.911 330.654 402.849L329.662 405.724C330.176 407.151 330.353 408.679 330.178 410.186C330.003 411.694 329.48 413.14 328.652 414.411L328.453 414.714L336.728 435.653L337.264 437.011H333.027L327.814 437.017H318.98L306.234 411.439L305.624 410.219V410.156L306.941 361.004C306.959 360.57 306.993 360.131 307.05 359.697C307.282 357.727 307.905 355.822 308.881 354.094C309.857 352.367 311.167 350.851 312.736 349.635C314.238 348.461 315.96 347.597 317.799 347.093C319.639 346.59 321.56 346.457 323.451 346.704L327.814 347.268L336.728 348.42L343.007 349.236L343.132 349.253L361.649 351.649L362.978 346.23L363.224 346.139L371.019 343.281L397.983 333.396L398.051 333.373L399.825 332.723L400.036 333.065C400.099 333.168 400.161 333.27 400.218 333.373C401.971 336.516 403.399 339.831 404.478 343.264C406.294 348.873 407.789 354.58 408.955 360.359C409.007 360.61 409.052 360.838 409.092 361.044L409.109 361.106C409.126 361.203 409.138 361.266 409.143 361.283C409.765 363.873 409.332 367.033 408.191 370.164Z" fill="#2F2E41"/>
<path d="M409.329 352.05C409.244 351.685 409.135 351.315 409.021 350.955C408.116 348.233 407.061 345.564 405.862 342.958C404.516 339.992 402.902 336.815 400.98 333.375C400.051 331.71 399.051 329.977 397.98 328.179C397.444 327.278 396.887 326.359 396.309 325.424C396.287 325.381 396.262 325.339 396.235 325.298L396.07 325.024L369.392 328.595L359.457 329.924L358.864 334.875L358.721 336.102C358.716 336.102 358.716 336.102 358.721 336.108L358.322 339.45V339.456L357.792 343.871L357.746 343.865L343.004 341.954L327.812 339.986L319.651 338.931C317.759 338.685 315.838 338.817 313.998 339.32C312.159 339.824 310.437 340.688 308.935 341.863C307.367 343.079 306.057 344.595 305.081 346.322C304.105 348.05 303.482 349.954 303.249 351.925C303.198 352.324 303.164 352.735 303.146 353.14L295.448 371.387C290.841 382.3 287.907 393.846 286.745 405.635L281.099 423.688L281.903 423.763L293.868 424.875L297.027 425.171L303.985 415.012C304.778 413.855 305.53 412.662 306.232 411.442C307.387 409.448 308.413 407.383 309.306 405.258L324.356 369.437C325.519 369.636 326.671 369.826 327.812 370.007C333.087 370.863 338.151 371.56 343.004 372.1C358.784 373.863 372.448 374 384.613 372.505C388.029 372.089 391.331 371.541 394.519 370.863C395.688 370.617 396.842 370.353 397.98 370.07C398.248 370.007 398.511 369.944 398.773 369.876C401.13 369.268 403.297 368.078 405.075 366.416C406.854 364.754 408.187 362.672 408.953 360.361C409.867 357.683 409.998 354.8 409.329 352.05Z" fill="#2F2E41"/>
<path d="M285.102 443.613L276.702 439.586L275.385 438.953L273.28 444.12L258.59 447.355C257.863 447.514 257.207 447.901 256.716 448.46C256.226 449.019 255.927 449.721 255.863 450.462C255.799 451.203 255.974 451.945 256.362 452.579C256.75 453.214 257.331 453.708 258.019 453.989L272.374 459.847L276.93 455.745L275.812 461.25L281.219 463.457L287.144 444.594L285.102 443.613Z" fill="#2F2E41"/>
<path d="M336.728 435.653L337.264 437.011H336.728V435.653Z" fill="#2F2E41"/>
<path d="M333.802 437.301L325 440.351L323.619 440.829L325.759 445.982L317.595 458.619C317.191 459.243 316.997 459.98 317.042 460.723C317.086 461.465 317.367 462.174 317.843 462.745C318.319 463.317 318.966 463.721 319.688 463.899C320.41 464.077 321.17 464.019 321.857 463.734L336.177 457.795L336.53 451.674L339.608 456.372L345.003 454.135L335.943 436.561L333.802 437.301Z" fill="#2F2E41"/>
<path d="M407.134 360.315C406.611 360.314 406.097 360.186 405.634 359.942L359.185 335.667L358.649 333.469L357.637 326.514L357.651 326.449L362.069 306.079C361.988 305.904 361.818 305.617 361.627 305.293C359.655 301.951 353.654 291.779 365.108 277.774L385.219 254.322L402.479 253.58L402.675 253.828C407.291 259.622 410.403 266.466 411.736 273.754C413.07 281.041 412.582 288.544 410.317 295.598L408.52 328.063L410.448 334.62C411.575 338.473 411.388 342.591 409.918 346.327L410.36 356.943C410.377 357.378 410.307 357.812 410.152 358.22C409.998 358.627 409.764 358.999 409.462 359.314C409.161 359.628 408.8 359.879 408.4 360.051C408 360.223 407.569 360.313 407.134 360.315L407.134 360.315Z" fill="#3F3D56"/>
<path d="M366.843 387.089C367.63 386.624 368.305 385.992 368.822 385.238C369.338 384.484 369.683 383.626 369.831 382.724C369.98 381.822 369.93 380.898 369.683 380.018C369.436 379.138 369 378.322 368.404 377.629L379.571 358.42L368.045 359.07L359.207 377.211C358.109 378.29 357.445 379.733 357.34 381.269C357.235 382.804 357.697 384.325 358.639 385.543C359.58 386.76 360.935 387.59 362.447 387.875C363.959 388.16 365.523 387.881 366.843 387.089L366.843 387.089Z" fill="#FFB7B7"/>
<path d="M371.349 372.967L361.03 364.927L379.781 328.582L372.755 282.296C372.408 280.009 372.568 277.672 373.225 275.454C373.882 273.235 375.02 271.188 376.557 269.458C378.093 267.728 379.992 266.358 382.118 265.445C384.244 264.532 386.544 264.098 388.857 264.174C393.033 264.316 396.983 266.109 399.839 269.161C402.695 272.212 404.224 276.272 404.091 280.449L402.355 333.151L371.349 372.967Z" fill="#3F3D56"/>
<path d="M374.147 244.578V227.495C374.143 221.424 376.551 215.599 380.84 211.304C385.129 207.008 390.949 204.593 397.019 204.589C403.089 204.585 408.912 206.993 413.207 211.283C417.501 215.573 419.916 221.394 419.92 227.465V227.495C423.954 235.902 421.431 239.899 419.92 244.578C419.919 245.393 419.595 246.174 419.019 246.75C418.443 247.326 417.662 247.65 416.847 247.652H377.222C376.407 247.651 375.625 247.327 375.049 246.75C374.473 246.174 374.148 245.393 374.147 244.578Z" fill="#2F2E41"/>
<path d="M389.53 246.542C398.991 246.542 406.661 238.87 406.661 229.407C406.661 219.943 398.991 212.271 389.53 212.271C380.068 212.271 372.398 219.943 372.398 229.407C372.398 238.87 380.068 246.542 389.53 246.542Z" fill="#FFB7B7"/>
<path d="M407.459 233.899C407.303 233.874 407.148 233.841 406.993 233.817C404.32 233.343 401.648 232.877 398.984 232.395L398.739 226.354L395.511 231.765C388.148 234.209 381.259 232.828 374.779 229.779C372.641 228.764 370.567 227.62 368.568 226.354C369.112 223.014 370.396 219.837 372.326 217.056C374.256 214.276 376.784 211.962 379.723 210.285C379.968 210.146 380.205 210.023 380.45 209.9C380.451 209.9 380.452 209.9 380.453 209.9C380.454 209.899 380.455 209.899 380.456 209.898C380.457 209.897 380.457 209.896 380.458 209.895C380.458 209.894 380.458 209.893 380.458 209.892C380.875 209.696 381.3 209.508 381.725 209.337C385.052 208.036 388.679 207.707 392.186 208.387C395.692 209.067 398.934 210.728 401.534 213.178C406.764 218.172 409.117 226.42 407.459 233.899Z" fill="#2F2E41"/>
</g>
<defs>
<clipPath id="clip0_6_72">
<rect width="496" height="464" fill="white"/>
</clipPath>
</defs>
</svg>
